<svg version="1.1" id="Layer_1" xmlns="http://www.w3.org/2000/svg" xmlns:xlink="http://www.w3.org/1999/xlink" x="0px" y="0px"
	 width="100%" viewBox="0 0 296 273" enable-background="new 0 0 296 273" xml:space="preserve">
<path fill="#F9F9F9" opacity="1.000000" stroke="none" 
	d="
M63.000000,1.000000 
	C109.687561,1.000000 156.375122,1.000000 203.496521,1.344117 
	C200.324142,5.801589 196.717926,9.914944 192.776733,14.410373 
	C197.875015,14.656892 206.899277,6.216070 208.000000,1.000000 
	C237.644989,1.000000 267.289978,1.000000 296.967468,1.000000 
	C296.967468,91.911804 296.967468,182.823624 296.967468,274.000000 
	C218.312637,274.000000 139.624969,274.000000 60.468636,273.574188 
	C59.055157,266.610687 59.438854,260.395508 63.904942,254.972702 
	C64.492523,254.259262 64.349625,252.835648 64.321106,251.746796 
	C64.267494,249.700394 64.108276,247.652069 63.890453,245.615509 
	C63.208344,239.238007 62.391453,232.873489 61.814980,226.486938 
	C61.616920,224.292709 61.653679,221.975662 62.139549,219.841385 
	C63.344578,214.548096 67.179016,209.377930 62.478004,204.682312 
	C63.838203,202.769989 65.396851,201.389420 65.698502,199.774109 
	C65.827591,199.082886 63.122700,198.085114 62.109257,196.885513 
	C61.334728,195.968719 60.646069,194.389938 60.888943,193.327271 
	C61.375866,191.196747 62.526333,189.217911 63.402897,187.176453 
	C63.904152,185.705887 65.957642,184.120377 65.707062,183.101593 
	C65.301140,181.451202 63.382866,180.172791 61.954762,178.570892 
	C62.646881,176.200073 63.636936,173.258606 64.303558,170.245575 
	C64.498444,169.364670 64.079155,167.948044 63.421101,167.340561 
	C57.373867,161.758057 57.075916,154.558182 62.083000,148.472717 
	C62.129219,146.048294 63.787003,143.626358 63.317257,141.731949 
	C62.307766,137.660904 67.150459,132.657776 61.290207,129.285507 
	C60.566711,128.869186 60.468956,125.269333 61.195606,124.771584 
	C65.685173,121.696327 64.174095,117.047752 63.404133,113.675858 
	C62.156399,108.211700 61.725327,103.364983 64.711784,98.445007 
	C67.012741,94.654343 65.873344,91.907906 62.237492,89.417229 
	C60.671871,88.344734 59.833347,85.972084 59.101383,84.025795 
	C58.754448,83.103302 59.251255,81.719849 59.681778,80.675491 
	C60.984756,77.514771 63.046440,74.534950 63.680828,71.265099 
	C64.412025,67.496216 64.486855,63.405415 63.881939,59.608105 
	C62.012737,47.874302 62.260605,36.142704 62.979908,24.370514 
	C63.050068,23.222284 63.284706,21.701033 62.688385,20.960930 
	C59.990955,17.613081 61.958603,14.392657 62.435978,11.044500 
	C62.907585,7.736769 62.834270,4.351343 63.000000,1.000000 
M182.194443,211.188721 
	C182.194443,211.188721 182.410538,211.176834 183.068512,211.104950 
	C184.057480,210.481415 185.046432,209.857864 186.370819,208.976791 
	C186.370819,208.976791 186.782730,208.881027 187.547516,208.958893 
	C190.039810,206.992233 192.532089,205.025558 195.293152,202.597000 
	C195.600952,202.428055 195.908768,202.259109 196.914581,202.047546 
	C199.219803,199.586655 201.525009,197.125763 204.061447,194.052414 
	C204.927582,193.066605 205.793716,192.080795 207.138397,190.930313 
	C207.381561,190.514526 207.624710,190.098724 208.044891,189.050034 
	C209.407288,187.040512 210.769669,185.030975 212.808243,182.892319 
	C213.777008,180.752274 214.745773,178.612228 215.748566,175.828674 
	C215.991135,175.238342 216.233719,174.647995 217.080780,173.843781 
	C217.799393,171.253021 218.517990,168.662247 219.195038,165.374542 
	C219.343155,164.937744 219.491272,164.500931 220.226120,163.791397 
	C220.551422,161.214676 220.876724,158.637939 221.101059,155.303116 
	C221.213715,154.552094 221.326370,153.801056 222.123016,152.749405 
	C221.885498,148.816559 221.647980,144.883728 221.188324,140.220322 
	C221.188049,139.460449 221.187759,138.700577 221.682983,137.389359 
	C220.805984,132.968597 220.293610,128.431564 218.933212,124.164932 
	C217.899765,120.923683 215.787628,118.026390 213.762161,114.457382 
	C213.108063,113.101128 212.453964,111.744873 211.875473,109.699265 
	C211.301331,109.124611 210.727188,108.549950 209.913895,107.684448 
	C209.913895,107.684448 209.839203,107.315399 209.890656,106.628685 
	C209.291840,106.080460 208.693039,105.532227 207.861954,104.737770 
	C207.861954,104.737770 207.791763,104.406631 207.874878,103.664886 
	C206.918716,102.775978 205.962540,101.887070 204.429947,100.673088 
	C201.621201,97.778801 198.812454,94.884514 195.931229,91.271812 
	C194.821564,90.582436 193.711884,89.893066 192.267181,89.133438 
	C192.267181,89.133438 192.016693,88.900116 191.901352,88.237961 
	C191.172363,87.873711 190.443390,87.509460 189.334183,87.066872 
	C189.334183,87.066872 189.030609,86.824936 188.921570,86.133926 
	C187.569550,85.469254 186.217514,84.804588 184.926422,84.022903 
	C184.926422,84.022903 184.913025,84.154144 184.635773,83.592751 
	C184.246887,83.480194 183.858017,83.367645 182.952621,83.258636 
	C182.644135,83.111816 182.335663,82.964996 181.873184,82.147957 
	C177.083267,80.199829 172.383118,77.966431 167.467010,76.419281 
	C164.858322,75.598305 161.874832,75.968201 158.380386,75.885162 
	C157.936523,75.788284 157.492676,75.691406 156.754776,74.896729 
	C152.153641,75.127640 147.552521,75.358559 142.223740,75.819229 
	C141.464447,75.822395 140.705154,75.825562 139.391068,75.327736 
	C133.584549,77.155663 127.778038,78.983589 121.515938,81.083405 
	C121.169983,81.139572 120.824036,81.195740 119.707283,81.135849 
	C117.792633,82.344856 115.877983,83.553864 113.430634,85.204712 
	C110.068245,87.535469 106.705856,89.866226 102.606453,92.126022 
	C99.803612,95.201599 97.000778,98.277176 93.995674,101.954079 
	C92.942612,103.291412 91.889549,104.628746 90.184128,106.101540 
	C89.849838,106.842979 89.515549,107.584427 89.093620,108.682289 
	C89.093620,108.682289 88.862556,108.967476 88.243340,109.044174 
	C87.823349,110.028206 87.403366,111.012230 86.910088,112.572357 
	C86.592438,113.042793 86.274788,113.513229 85.235474,114.128952 
	C84.901321,115.210716 84.567162,116.292488 84.131607,117.950844 
	C83.966492,118.303101 83.801384,118.655350 83.296455,119.289558 
	C83.105080,119.537018 83.027412,119.816162 82.967537,120.953171 
	C82.658058,121.719460 82.348579,122.485748 81.987236,123.363281 
	C81.987236,123.363281 81.899017,123.596283 81.731445,124.380714 
	C81.232506,125.896866 80.733559,127.413017 79.685753,129.246338 
	C79.530327,130.283218 79.374901,131.320084 79.251945,133.026184 
	C79.127594,133.682251 79.003235,134.338333 78.568863,135.152954 
	C78.507164,135.250153 78.371811,135.378326 78.397285,135.438889 
	C78.480949,135.637817 78.622978,135.812210 78.820602,136.801804 
	C78.618782,137.847427 78.416969,138.893051 77.628624,140.343094 
	C77.789024,144.903595 77.949425,149.464081 78.312691,154.751358 
	C78.504135,156.245102 78.695580,157.738861 78.876236,159.636169 
	C78.975616,160.018509 79.075005,160.400864 79.506775,161.557327 
	C79.983200,163.711121 80.459625,165.864914 80.489082,168.362778 
	C80.969101,169.240738 81.449112,170.118698 82.165070,171.453644 
	C82.210297,171.790329 82.255531,172.127014 82.155792,173.214813 
	C82.789284,174.476730 83.422783,175.738663 84.306763,177.133102 
	C84.306763,177.133102 84.357727,177.411865 84.195152,178.125931 
	C84.747780,178.758621 85.300415,179.391296 86.082603,180.342972 
	C86.082603,180.342972 86.146858,180.730682 86.054497,181.498215 
	C87.356140,183.334305 88.657784,185.170380 90.179771,187.238983 
	C90.179771,187.238983 90.229988,187.555344 90.132858,188.318649 
	C92.410622,190.883728 94.688393,193.448822 97.544022,196.289581 
	C98.690300,197.540771 99.836571,198.791962 101.054337,200.746902 
	C102.497826,201.766052 103.941307,202.785187 105.725029,203.898346 
	C105.725029,203.898346 105.973198,204.149368 106.073982,204.846893 
	C107.196510,205.488937 108.319031,206.130966 109.757912,206.830490 
	C109.757912,206.830490 109.990341,207.052658 110.102173,207.740616 
	C112.172745,208.770126 114.243317,209.799637 116.962570,210.967728 
	C118.303665,211.663574 119.644753,212.359406 121.309868,213.524597 
	C121.668083,213.624481 122.026299,213.724365 123.119415,213.877762 
	C124.724548,214.485794 126.329674,215.093842 128.242905,216.265305 
	C131.808441,216.909927 135.373993,217.554565 139.625092,218.145584 
	C140.067093,218.256073 140.509079,218.366562 141.267609,219.159348 
	C146.861496,218.954102 152.455399,218.748840 158.766693,218.274841 
	C159.527649,218.236954 160.288589,218.199051 161.561981,218.649063 
	C167.055313,216.858658 172.548660,215.068253 178.555420,212.877319 
	C179.357529,212.579926 180.159637,212.282547 181.392944,211.906143 
	C181.672821,211.793808 181.896545,211.612259 182.194443,211.188721 
M218.640518,40.181625 
	C216.840042,40.463299 215.042755,40.767467 213.238586,41.023132 
	C197.124329,43.306637 184.427338,62.791443 189.050003,78.475540 
	C189.468384,79.895042 191.487671,81.645248 192.946136,81.834526 
	C212.866135,84.419685 229.205948,69.609070 228.943237,49.436310 
	C228.841797,41.647797 227.644867,40.472504 218.640518,40.181625 
M264.738861,178.066177 
	C267.957581,178.025955 271.237274,178.323212 274.361359,177.758972 
	C275.427673,177.566391 276.882446,175.178467 276.829041,173.846970 
	C276.511871,165.937347 266.981628,158.675797 259.219574,160.128159 
	C254.347488,161.039780 252.340912,163.431274 254.639267,167.660492 
	C256.778290,171.596573 260.789886,174.515015 264.738861,178.066177 
M240.643188,225.304901 
	C234.264771,231.531403 227.854645,237.726257 221.556732,244.033157 
	C220.923080,244.667709 220.968582,245.980438 220.698914,246.978424 
	C221.813126,246.802597 223.316147,247.029587 223.980804,246.388031 
	C229.959000,240.617538 235.841721,234.743927 241.578247,228.734283 
	C242.108307,228.179001 241.432953,226.473099 240.643188,225.304901 
M159.895035,248.212631 
	C159.458878,250.081009 159.022705,251.949387 158.586548,253.817749 
	C160.123779,254.129166 161.830643,254.978561 163.139557,254.565826 
	C164.035629,254.283279 165.197769,251.694244 164.800247,251.099823 
	C163.907898,249.765533 162.117859,249.031616 159.895035,248.212631 
M100.790451,8.125249 
	C100.299423,6.517395 100.017021,4.785804 99.183784,3.380919 
	C98.949265,2.985499 96.527504,3.150079 96.106293,3.753719 
	C95.184921,5.074139 94.902771,6.840599 94.359528,8.424871 
	C96.376045,8.563871 98.392563,8.702871 100.790451,8.125249 
M136.537079,54.913746 
	C138.052673,54.542580 139.656570,54.347706 141.016907,53.666485 
	C141.326431,53.511486 141.165054,51.238205 140.555664,50.716709 
	C139.747528,50.025150 137.378708,49.659901 137.256943,49.912960 
	C136.593246,51.292217 136.413712,52.904446 136.537079,54.913746 
z"/>
<path fill="#F5F5F6" opacity="1.000000" stroke="none" 
	d="
M62.531342,1.000000 
	C62.834270,4.351343 62.907585,7.736769 62.435978,11.044500 
	C61.958603,14.392657 59.990955,17.613081 62.688385,20.960930 
	C63.284706,21.701033 63.050068,23.222284 62.979908,24.370514 
	C62.260605,36.142704 62.012737,47.874302 63.881939,59.608105 
	C64.486855,63.405415 64.412025,67.496216 63.680828,71.265099 
	C63.046440,74.534950 60.984756,77.514771 59.681778,80.675491 
	C59.251255,81.719849 58.754448,83.103302 59.101383,84.025795 
	C59.833347,85.972084 60.671871,88.344734 62.237492,89.417229 
	C65.873344,91.907906 67.012741,94.654343 64.711784,98.445007 
	C61.725327,103.364983 62.156399,108.211700 63.404133,113.675858 
	C64.174095,117.047752 65.685173,121.696327 61.195606,124.771584 
	C60.468956,125.269333 60.566711,128.869186 61.290207,129.285507 
	C67.150459,132.657776 62.307766,137.660904 63.317257,141.731949 
	C63.787003,143.626358 62.129219,146.048294 62.083000,148.472717 
	C57.075916,154.558182 57.373867,161.758057 63.421101,167.340561 
	C64.079155,167.948044 64.498444,169.364670 64.303558,170.245575 
	C63.636936,173.258606 62.646881,176.200073 61.954762,178.570892 
	C63.382866,180.172791 65.301140,181.451202 65.707062,183.101593 
	C65.957642,184.120377 63.904152,185.705887 63.402897,187.176453 
	C62.526333,189.217911 61.375866,191.196747 60.888943,193.327271 
	C60.646069,194.389938 61.334728,195.968719 62.109257,196.885513 
	C63.122700,198.085114 65.827591,199.082886 65.698502,199.774109 
	C65.396851,201.389420 63.838203,202.769989 62.478004,204.682312 
	C67.179016,209.377930 63.344578,214.548096 62.139549,219.841385 
	C61.653679,221.975662 61.616920,224.292709 61.814980,226.486938 
	C62.391453,232.873489 63.208344,239.238007 63.890453,245.615509 
	C64.108276,247.652069 64.267494,249.700394 64.321106,251.746796 
	C64.349625,252.835648 64.492523,254.259262 63.904942,254.972702 
	C59.438854,260.395508 59.055157,266.610687 59.999977,273.574188 
	C51.312435,274.000000 42.624874,274.000000 33.421982,273.612427 
	C31.605917,266.423309 30.098658,259.651611 29.106934,252.805267 
	C28.714735,250.097733 29.314041,247.200180 29.738894,244.431656 
	C30.356300,240.408386 31.585318,236.452469 31.908094,232.416214 
	C32.515522,224.820465 32.499981,217.175262 33.089664,209.577499 
	C33.289795,206.998978 34.640289,204.527069 35.256889,201.956497 
	C35.581802,200.601974 35.982353,198.171494 35.451431,197.884033 
	C32.101192,196.069977 33.400822,193.049988 32.908676,190.445129 
	C32.648201,189.066498 31.452452,187.871597 30.726702,186.567184 
	C30.599348,186.338287 30.708633,185.977707 30.708633,185.500076 
	C31.930288,185.593170 33.156494,185.686615 34.615730,185.797806 
	C34.757957,183.858200 35.619335,181.683044 34.880642,180.624557 
	C30.243259,173.979630 30.625330,166.083450 31.882544,159.332504 
	C33.163376,152.454742 30.177803,146.448105 31.423096,140.013153 
	C44.891895,139.206390 54.273743,130.103409 54.032856,118.599556 
	C53.977554,115.958710 53.415306,114.518707 50.346752,113.856804 
	C44.838097,112.668556 39.937534,114.034378 34.680191,115.824989 
	C31.768362,110.383263 30.165596,105.244179 32.214813,99.098434 
	C33.404648,95.530045 32.965420,91.225441 32.505741,87.341309 
	C31.620228,79.859001 30.132277,72.449684 29.061287,64.986122 
	C28.859701,63.581299 29.439970,62.065353 29.653145,60.599770 
	C30.768541,52.931408 32.296177,45.292122 32.842709,37.583328 
	C33.177822,32.856537 34.575901,27.594645 30.434383,23.374908 
	C29.911230,22.841875 30.068724,20.886089 30.638863,20.165363 
	C33.111176,17.040060 31.227940,14.776804 29.767735,12.063309 
	C27.872000,8.540470 26.562078,4.702388 25.000000,1.000000 
	C37.354229,1.000000 49.708454,1.000000 62.531342,1.000000 
M40.963966,55.540657 
	C39.882080,57.373222 38.800194,59.205784 37.718307,61.038349 
	C43.533749,60.292294 50.274925,53.051247 50.286427,48.375305 
	C47.037827,50.836082 44.264149,52.937115 40.963966,55.540657 
M42.245045,196.533264 
	C42.461349,196.560165 42.677654,196.587051 42.893963,196.613937 
	C42.797657,196.504715 42.701351,196.395477 42.245045,196.533264 
z"/>
<path fill="#F2F2F2" opacity="1.000000" stroke="none" 
	d="
M24.531597,1.000000 
	C26.562078,4.702388 27.872000,8.540470 29.767735,12.063309 
	C31.227940,14.776804 33.111176,17.040060 30.638863,20.165363 
	C30.068724,20.886089 29.911230,22.841875 30.434383,23.374908 
	C34.575901,27.594645 33.177822,32.856537 32.842709,37.583328 
	C32.296177,45.292122 30.768541,52.931408 29.653145,60.599770 
	C29.439970,62.065353 28.859701,63.581299 29.061287,64.986122 
	C30.132277,72.449684 31.620228,79.859001 32.505741,87.341309 
	C32.965420,91.225441 33.404648,95.530045 32.214813,99.098434 
	C30.165596,105.244179 31.768362,110.383263 34.484512,116.094292 
	C29.584017,120.217422 25.884266,124.627342 24.715788,131.104294 
	C23.541080,137.615799 24.403053,139.259308 31.005476,140.018585 
	C30.177803,146.448105 33.163376,152.454742 31.882544,159.332504 
	C30.625330,166.083450 30.243259,173.979630 34.880642,180.624557 
	C35.619335,181.683044 34.757957,183.858200 34.615730,185.797806 
	C33.156494,185.686615 31.930288,185.593170 30.708633,185.500076 
	C30.708633,185.977707 30.599348,186.338287 30.726702,186.567184 
	C31.452452,187.871597 32.648201,189.066498 32.908676,190.445129 
	C33.400822,193.049988 32.101192,196.069977 35.451431,197.884033 
	C35.982353,198.171494 35.581802,200.601974 35.256889,201.956497 
	C34.640289,204.527069 33.289795,206.998978 33.089664,209.577499 
	C32.499981,217.175262 32.515522,224.820465 31.908094,232.416214 
	C31.585318,236.452469 30.356300,240.408386 29.738894,244.431656 
	C29.314041,247.200180 28.714735,250.097733 29.106934,252.805267 
	C30.098658,259.651611 31.605917,266.423309 32.953323,273.612427 
	C27.977907,274.000000 22.955816,274.000000 17.466908,273.555481 
	C16.665663,264.338409 16.547661,255.549286 15.878258,246.802368 
	C15.647048,243.781204 13.140516,240.829483 13.255389,237.908279 
	C13.496172,231.785202 14.873085,225.713608 15.595344,219.598648 
	C15.820997,217.688187 15.596214,215.683777 15.311096,213.761887 
	C14.634583,209.201752 13.626946,204.683548 13.139358,200.107254 
	C13.006066,198.856262 13.972910,197.225189 14.895348,196.171738 
	C18.238262,192.354050 18.414080,187.067581 16.107958,184.098907 
	C10.838474,177.315506 14.661762,170.831314 14.765999,164.203796 
	C14.855699,158.500473 14.663102,152.789749 14.483704,147.085815 
	C14.180782,137.454437 13.748867,127.827034 13.457780,118.195351 
	C13.356420,114.841484 13.384411,111.472496 13.578882,108.123505 
	C13.874844,103.026779 13.177621,97.416626 15.123993,93.004700 
	C16.928522,88.914291 16.819317,85.667412 16.169064,81.684357 
	C15.527618,77.755264 15.881395,73.671097 15.676326,69.661217 
	C15.482709,65.875275 15.143760,62.096386 14.843889,58.316360 
	C14.481597,53.749500 13.671318,49.168758 13.843218,44.623837 
	C13.993467,40.651287 16.012690,36.673580 15.779906,32.783508 
	C15.542493,28.816059 14.768212,23.430223 12.118584,21.337898 
	C5.033464,15.742999 5.819397,8.279363 5.000000,1.000000 
	C11.354398,1.000000 17.708796,1.000000 24.531597,1.000000 
M22.385952,115.817848 
	C21.657579,114.302605 20.929207,112.787361 19.737278,110.307777 
	C19.193295,116.093491 20.008366,117.397163 22.385952,115.817848 
M18.614576,21.352165 
	C19.076725,19.834776 19.538874,18.317385 20.001022,16.799995 
	C19.394867,16.749947 18.788713,16.699898 18.182558,16.649851 
	C18.182558,18.032312 18.182558,19.414774 18.614576,21.352165 
M21.758959,155.653000 
	C21.254244,154.550797 20.749529,153.448593 20.244814,152.346375 
	C19.959051,152.436462 19.673288,152.526550 19.387524,152.616638 
	C19.701271,154.100479 20.015018,155.584305 20.328762,157.068146 
	C20.840639,156.821152 21.352514,156.574158 21.758959,155.653000 
M22.284733,266.890289 
	C22.474480,267.425537 22.664228,267.960815 22.853973,268.496063 
	C23.129120,268.370941 23.404266,268.245850 23.679415,268.120758 
	C23.357950,267.569763 23.036486,267.018799 22.284733,266.890289 
M20.284769,161.890244 
	C20.474506,162.425507 20.664246,162.960785 20.853989,163.496063 
	C21.129135,163.370941 21.404280,163.245834 21.679419,163.120712 
	C21.357958,162.569717 21.036497,162.018738 20.284769,161.890244 
M18.277819,11.088159 
	C18.770861,11.034070 19.263903,10.979981 19.756945,10.925892 
	C19.643358,10.485762 19.529772,10.045630 19.416185,9.605501 
	C18.994846,9.903241 18.573507,10.200981 18.277819,11.088159 
M22.284750,82.890266 
	C22.474503,83.425529 22.664257,83.960785 22.854012,84.496048 
	C23.129154,84.370941 23.404295,84.245834 23.679438,84.120720 
	C23.357967,83.569733 23.036497,83.018745 22.284750,82.890266 
M22.290590,33.444618 
	C22.011026,33.711170 21.731461,33.977718 21.451897,34.244270 
	C21.562366,34.360004 21.672834,34.475742 21.783304,34.591476 
	C22.062893,34.324604 22.342484,34.057728 22.290590,33.444618 
M22.444613,71.709419 
	C22.711172,71.988983 22.977732,72.268555 23.244291,72.548119 
	C23.360025,72.437645 23.582432,72.237160 23.576115,72.229675 
	C23.327324,71.934822 23.057730,71.657516 22.444613,71.709419 
M23.555382,78.290588 
	C23.288826,78.011017 23.022272,77.731453 22.755716,77.451889 
	C22.639980,77.562363 22.524246,77.672836 22.408510,77.783310 
	C22.675388,78.062897 22.942266,78.342484 23.555382,78.290588 
M23.555395,192.290558 
	C23.288836,192.011002 23.022276,191.731461 22.755713,191.451904 
	C22.639984,191.562378 22.524256,191.672852 22.408527,191.783325 
	C22.675407,192.062897 22.942287,192.342468 23.555395,192.290558 
z"/>
<path fill="#EFEFEF" opacity="1.000000" stroke="none" 
	d="
M4.500000,1.000000 
	C5.819397,8.279363 5.033464,15.742999 12.118584,21.337898 
	C14.768212,23.430223 15.542493,28.816059 15.779906,32.783508 
	C16.012690,36.673580 13.993467,40.651287 13.843218,44.623837 
	C13.671318,49.168758 14.481597,53.749500 14.843889,58.316360 
	C15.143760,62.096386 15.482709,65.875275 15.676326,69.661217 
	C15.881395,73.671097 15.527618,77.755264 16.169064,81.684357 
	C16.819317,85.667412 16.928522,88.914291 15.123993,93.004700 
	C13.177621,97.416626 13.874844,103.026779 13.578882,108.123505 
	C13.384411,111.472496 13.356420,114.841484 13.457780,118.195351 
	C13.748867,127.827034 14.180782,137.454437 14.483704,147.085815 
	C14.663102,152.789749 14.855699,158.500473 14.765999,164.203796 
	C14.661762,170.831314 10.838474,177.315506 16.107958,184.098907 
	C18.414080,187.067581 18.238262,192.354050 14.895348,196.171738 
	C13.972910,197.225189 13.006066,198.856262 13.139358,200.107254 
	C13.626946,204.683548 14.634583,209.201752 15.311096,213.761887 
	C15.596214,215.683777 15.820997,217.688187 15.595344,219.598648 
	C14.873085,225.713608 13.496172,231.785202 13.255389,237.908279 
	C13.140516,240.829483 15.647048,243.781204 15.878258,246.802368 
	C16.547661,255.549286 16.665663,264.338409 17.000046,273.555481 
	C11.675782,274.000000 6.351565,274.000000 1.020511,274.000000 
	C1.013674,183.000000 1.013674,92.000000 1.009427,1.000000 
	C2.003453,1.000000 3.001727,1.000000 4.500000,1.000000 
z"/>
<path fill="#EAEAED" opacity="1.000000" stroke="none" 
	d="
M207.600006,1.000000 
	C206.899277,6.216070 197.875015,14.656892 192.776733,14.410373 
	C196.717926,9.914944 200.324142,5.801589 203.965179,1.344117 
	C205.066666,1.000000 206.133347,1.000000 207.600006,1.000000 
z"/>
<path fill="#F48B47" opacity="1.000000" stroke="none" 
	d="
M85.957130,113.983658 
	C86.274788,113.513229 86.592438,113.042793 87.221603,112.131523 
	C87.976265,110.782951 88.419411,109.875214 88.862556,108.967476 
	C88.862556,108.967476 89.093620,108.682289 89.421371,108.374344 
	C90.111572,107.366287 90.474022,106.666183 90.836487,105.966080 
	C91.889549,104.628746 92.942612,103.291412 94.412422,101.527145 
	C97.667267,98.132462 100.505363,95.164719 103.343460,92.196976 
	C106.705856,89.866226 110.068245,87.535469 114.043198,84.988304 
	C116.596535,83.598564 118.537308,82.425232 120.478081,81.251907 
	C120.824036,81.195740 121.169983,81.139572 122.128021,80.954514 
	C128.475357,79.159981 134.210602,77.494354 139.945862,75.828728 
	C140.705154,75.825562 141.464447,75.822395 143.043488,75.821228 
	C148.258423,75.746994 152.653625,75.670761 157.048813,75.594528 
	C157.492676,75.691406 157.936523,75.788284 159.001266,76.090240 
	C167.090485,78.469597 174.558838,80.643883 182.027176,82.818169 
	C182.335663,82.964996 182.644135,83.111816 183.389954,83.495483 
	C184.189194,83.872932 184.551117,84.013535 184.913025,84.154144 
	C184.913025,84.154144 184.926422,84.022903 185.051773,84.363663 
	C186.461624,85.411263 187.746109,86.118103 189.030609,86.824936 
	C189.030609,86.824936 189.334183,87.066872 189.653717,87.388168 
	C190.654404,88.106346 191.335556,88.503227 192.016693,88.900116 
	C192.016693,88.900116 192.267181,89.133438 192.578903,89.464355 
	C193.928329,90.526924 194.966019,91.258568 196.003723,91.990219 
	C198.812454,94.884514 201.621201,97.778801 204.774033,101.156860 
	C206.009323,102.562637 206.900543,103.484634 207.791763,104.406631 
	C207.791763,104.406631 207.861954,104.737770 208.003418,105.169968 
	C208.709656,106.173241 209.274429,106.744324 209.839203,107.315399 
	C209.839203,107.315399 209.913895,107.684448 210.043961,108.140808 
	C210.715958,109.194321 211.257904,109.791473 211.799866,110.388618 
	C212.453964,111.744873 213.108063,113.101128 213.962128,115.087830 
	C216.503906,123.125755 218.845688,130.533234 221.187469,137.940704 
	C221.187759,138.700577 221.188049,139.460449 221.185593,141.038635 
	C221.268250,145.587982 221.353638,149.319016 221.439026,153.050034 
	C221.326370,153.801056 221.213715,154.552094 220.904449,155.956635 
	C220.351685,159.094803 219.995544,161.579468 219.639404,164.064133 
	C219.491272,164.500931 219.343155,164.937744 218.947998,165.951035 
	C217.959412,169.037567 217.217850,171.547623 216.476288,174.057663 
	C216.233719,174.647995 215.991135,175.238342 215.442596,176.340210 
	C214.135117,178.908325 213.133606,180.964890 212.132080,183.021454 
	C210.769669,185.030975 209.407288,187.040512 207.718506,189.461945 
	C207.148041,190.280899 206.903946,190.687943 206.659866,191.094986 
	C205.793716,192.080795 204.927582,193.066605 203.629974,194.483734 
	C200.871201,197.306747 198.543884,199.698456 196.216583,202.090149 
	C195.908768,202.259109 195.600952,202.428055 194.820572,202.872101 
	C191.826233,205.058456 189.304474,206.969742 186.782715,208.881012 
	C186.782730,208.881027 186.370819,208.976791 185.889511,209.100586 
	C184.408981,209.875198 183.409760,210.526016 182.410538,211.176834 
	C182.410538,211.176834 182.194443,211.188721 181.897766,211.268494 
	C181.287140,211.459305 181.074036,211.671616 180.961746,211.985168 
	C180.159637,212.282547 179.357529,212.579926 177.924042,213.071350 
	C171.878296,214.897324 166.463913,216.529236 161.049545,218.161148 
	C160.288589,218.199051 159.527649,218.236954 157.953964,218.275360 
	C151.744522,218.342926 146.347794,218.409988 140.951080,218.477051 
	C140.509079,218.366562 140.067093,218.256073 139.001511,217.925079 
	C134.896896,217.037018 131.415848,216.369446 127.934807,215.701874 
	C126.329674,215.093842 124.724548,214.485794 122.575104,213.631409 
	C121.682472,213.275116 121.334160,213.165192 120.985847,213.055252 
	C119.644753,212.359406 118.303665,211.663574 116.430161,210.627625 
	C113.928612,209.209229 111.959473,208.130951 109.990341,207.052673 
	C109.990341,207.052658 109.757912,206.830490 109.445892,206.510361 
	C108.080322,205.509933 107.026764,204.829651 105.973198,204.149368 
	C105.973198,204.149368 105.725029,203.898346 105.420807,203.543823 
	C103.738670,202.140579 102.360764,201.091858 100.982849,200.043152 
	C99.836571,198.791962 98.690300,197.540771 97.200867,195.815262 
	C94.648476,192.745743 92.439232,190.150543 90.229988,187.555344 
	C90.229988,187.555344 90.179771,187.238983 90.031387,186.783722 
	C88.637627,184.462524 87.392242,182.596603 86.146858,180.730682 
	C86.146858,180.730682 86.082603,180.342972 85.966988,179.866882 
	C85.353485,178.731155 84.855606,178.071518 84.357727,177.411865 
	C84.357727,177.411865 84.306763,177.133102 84.135147,176.705612 
	C83.409271,175.006653 82.855011,173.735168 82.300758,172.463699 
	C82.255531,172.127014 82.210297,171.790329 82.078690,170.895538 
	C81.640228,169.564514 81.288147,168.791611 80.936066,168.018707 
	C80.459625,165.864914 79.983200,163.711121 79.491531,160.983856 
	C79.279869,160.017807 79.083443,159.625198 78.887024,159.232605 
	C78.695580,157.738861 78.504135,156.245102 78.420021,154.041901 
	C78.423286,148.867859 78.319221,144.403259 78.215149,139.938675 
	C78.416969,138.893051 78.618782,137.847427 78.889221,136.158493 
	C78.931526,135.341583 78.905205,135.167999 78.878883,134.994400 
	C79.003235,134.338333 79.127594,133.682251 79.471603,132.463562 
	C79.872375,130.910339 80.053497,129.919754 80.234619,128.929169 
	C80.733559,127.413017 81.232506,125.896866 81.951340,123.993454 
	C82.171242,123.606201 82.282364,123.363243 82.282364,123.363243 
	C82.282364,123.363243 82.039101,123.252029 82.039108,123.252029 
	C82.348579,122.485748 82.658058,121.719460 83.207069,120.410446 
	C83.686340,119.619911 83.749557,119.333206 83.636269,119.007607 
	C83.801384,118.655350 83.966492,118.303101 84.437592,117.453445 
	C85.148102,115.965256 85.552612,114.974457 85.957130,113.983658 
z"/>
<path fill="#FEDF6F" opacity="1.000000" stroke="none" 
	d="
M219.072205,40.174656 
	C227.644867,40.472504 228.841797,41.647797 228.943237,49.436310 
	C229.205948,69.609070 212.866135,84.419685 192.946136,81.834526 
	C191.487671,81.645248 189.468384,79.895042 189.050003,78.475540 
	C184.427338,62.791443 197.124329,43.306637 213.238586,41.023132 
	C215.042755,40.767467 216.840042,40.463299 219.072205,40.174656 
z"/>
<path fill="#E7E8EC" opacity="1.000000" stroke="none" 
	d="
M264.357971,177.973816 
	C260.789886,174.515015 256.778290,171.596573 254.639267,167.660492 
	C252.340912,163.431274 254.347488,161.039780 259.219574,160.128159 
	C266.981628,158.675797 276.511871,165.937347 276.829041,173.846970 
	C276.882446,175.178467 275.427673,177.566391 274.361359,177.758972 
	C271.237274,178.323212 267.957581,178.025955 264.357971,177.973816 
z"/>
<path fill="#E9EAED" opacity="1.000000" stroke="none" 
	d="
M240.980255,225.303192 
	C241.432953,226.473099 242.108307,228.179001 241.578247,228.734283 
	C235.841721,234.743927 229.959000,240.617538 223.980804,246.388031 
	C223.316147,247.029587 221.813126,246.802597 220.698914,246.978424 
	C220.968582,245.980438 220.923080,244.667709 221.556732,244.033157 
	C227.854645,237.726257 234.264771,231.531403 240.980255,225.303192 
z"/>
<path fill="#E9EAED" opacity="1.000000" stroke="none" 
	d="
M160.294159,248.132965 
	C162.117859,249.031616 163.907898,249.765533 164.800247,251.099823 
	C165.197769,251.694244 164.035629,254.283279 163.139557,254.565826 
	C161.830643,254.978561 160.123779,254.129166 158.586548,253.817749 
	C159.022705,251.949387 159.458878,250.081009 160.294159,248.132965 
z"/>
<path fill="#FCEBDC" opacity="1.000000" stroke="none" 
	d="
M181.950180,82.483063 
	C174.558838,80.643883 167.090485,78.469597 159.341339,76.047913 
	C161.874832,75.968201 164.858322,75.598305 167.467010,76.419281 
	C172.383118,77.966431 177.083267,80.199829 181.950180,82.483063 
z"/>
<path fill="#E9E9ED" opacity="1.000000" stroke="none" 
	d="
M100.599762,8.483561 
	C98.392563,8.702871 96.376045,8.563871 94.359528,8.424871 
	C94.902771,6.840599 95.184921,5.074139 96.106293,3.753719 
	C96.527504,3.150079 98.949265,2.985499 99.183784,3.380919 
	C100.017021,4.785804 100.299423,6.517395 100.599762,8.483561 
z"/>
<path fill="#FCEBDC" opacity="1.000000" stroke="none" 
	d="
M221.435242,137.665039 
	C218.845688,130.533234 216.503906,123.125755 214.158783,115.347168 
	C215.787628,118.026390 217.899765,120.923683 218.933212,124.164932 
	C220.293610,128.431564 220.805984,132.968597 221.435242,137.665039 
z"/>
<path fill="#272B39" opacity="1.000000" stroke="none" 
	d="
M136.302353,54.675140 
	C136.413712,52.904446 136.593246,51.292217 137.256943,49.912960 
	C137.378708,49.659901 139.747528,50.025150 140.555664,50.716709 
	C141.165054,51.238205 141.326431,53.511486 141.016907,53.666485 
	C139.656570,54.347706 138.052673,54.542580 136.302353,54.675140 
z"/>
<path fill="#FCEBDC" opacity="1.000000" stroke="none" 
	d="
M139.668457,75.578232 
	C134.210602,77.494354 128.475357,79.159981 122.355820,80.818565 
	C127.778038,78.983589 133.584549,77.155663 139.668457,75.578232 
z"/>
<path fill="#FCEBDC" opacity="1.000000" stroke="none" 
	d="
M141.109344,218.818207 
	C146.347794,218.409988 151.744522,218.342926 157.595261,218.409729 
	C152.455399,218.748840 146.861496,218.954102 141.109344,218.818207 
z"/>
<path fill="#FCEBDC" opacity="1.000000" stroke="none" 
	d="
M161.305756,218.405106 
	C166.463913,216.529236 171.878296,214.897324 177.667328,213.271637 
	C172.548660,215.068253 167.055313,216.858658 161.305756,218.405106 
z"/>
<path fill="#FCEBDC" opacity="1.000000" stroke="none" 
	d="
M156.901794,75.245628 
	C152.653625,75.670761 148.258423,75.746994 143.407318,75.706352 
	C147.552521,75.358559 152.153641,75.127640 156.901794,75.245628 
z"/>
<path fill="#FDE8D6" opacity="1.000000" stroke="none" 
	d="
M77.921890,140.140884 
	C78.319221,144.403259 78.423286,148.867859 78.318588,153.678513 
	C77.949425,149.464081 77.789024,144.903595 77.921890,140.140884 
z"/>
<path fill="#FDE8D6" opacity="1.000000" stroke="none" 
	d="
M102.974960,92.161499 
	C100.505363,95.164719 97.667267,98.132462 94.513550,101.226479 
	C97.000778,98.277176 99.803612,95.201599 102.974960,92.161499 
z"/>
<path fill="#FCEBDC" opacity="1.000000" stroke="none" 
	d="
M221.781021,152.899719 
	C221.353638,149.319016 221.268250,145.587982 221.296661,141.403931 
	C221.647980,144.883728 221.885498,148.816559 221.781021,152.899719 
z"/>
<path fill="#FCEBDC" opacity="1.000000" stroke="none" 
	d="
M90.181427,187.936996 
	C92.439232,190.150543 94.648476,192.745743 96.911942,195.677429 
	C94.688393,193.448822 92.410622,190.883728 90.181427,187.936996 
z"/>
<path fill="#FCEBDC" opacity="1.000000" stroke="none" 
	d="
M196.565582,202.068848 
	C198.543884,199.698456 200.871201,197.306747 203.514374,194.789948 
	C201.525009,197.125763 199.219803,199.586655 196.565582,202.068848 
z"/>
<path fill="#FCEBDC" opacity="1.000000" stroke="none" 
	d="
M128.088852,215.983582 
	C131.415848,216.369446 134.896896,217.037018 138.658722,217.951874 
	C135.373993,217.554565 131.808441,216.909927 128.088852,215.983582 
z"/>
<path fill="#FCEBDC" opacity="1.000000" stroke="none" 
	d="
M187.165115,208.919952 
	C189.304474,206.969742 191.826233,205.058456 194.686188,203.103043 
	C192.532089,205.025558 190.039810,206.992233 187.165115,208.919952 
z"/>
<path fill="#FCEBDC" opacity="1.000000" stroke="none" 
	d="
M219.932770,163.927765 
	C219.995544,161.579468 220.351685,159.094803 220.954941,156.335678 
	C220.876724,158.637939 220.551422,161.214676 219.932770,163.927765 
z"/>
<path fill="#FCEBDC" opacity="1.000000" stroke="none" 
	d="
M216.778534,173.950714 
	C217.217850,171.547623 217.959412,169.037567 218.968781,166.299500 
	C218.517990,168.662247 217.799393,171.253021 216.778534,173.950714 
z"/>
<path fill="#FCEBDC" opacity="1.000000" stroke="none" 
	d="
M110.046249,207.396637 
	C111.959473,208.130951 113.928612,209.209229 116.105820,210.558319 
	C114.243317,209.799637 112.172745,208.770126 110.046249,207.396637 
z"/>
<path fill="#FCEBDC" opacity="1.000000" stroke="none" 
	d="
M86.100677,181.114441 
	C87.392242,182.596603 88.637627,184.462524 89.921211,186.667450 
	C88.657784,185.170380 87.356140,183.334305 86.100677,181.114441 
z"/>
<path fill="#FCEBDC" opacity="1.000000" stroke="none" 
	d="
M120.092682,81.193878 
	C118.537308,82.425232 116.596535,83.598564 114.309540,84.767380 
	C115.877983,83.553864 117.792633,82.344856 120.092682,81.193878 
z"/>
<path fill="#FCEBDC" opacity="1.000000" stroke="none" 
	d="
M212.470169,182.956879 
	C213.133606,180.964890 214.135117,178.908325 215.425598,176.661957 
	C214.745773,178.612228 213.777008,180.752274 212.470169,182.956879 
z"/>
<path fill="#FCEBDC" opacity="1.000000" stroke="none" 
	d="
M101.018593,200.395020 
	C102.360764,201.091858 103.738670,202.140579 105.250687,203.496796 
	C103.941307,202.785187 102.497826,201.766052 101.018593,200.395020 
z"/>
<path fill="#FCEBDC" opacity="1.000000" stroke="none" 
	d="
M188.976089,86.479431 
	C187.746109,86.118103 186.461624,85.411263 185.021301,84.422165 
	C186.217514,84.804588 187.569550,85.469254 188.976089,86.479431 
z"/>
<path fill="#FDE8D6" opacity="1.000000" stroke="none" 
	d="
M88.552948,109.005829 
	C88.419411,109.875214 87.976265,110.782951 87.258255,111.843475 
	C87.403366,111.012230 87.823349,110.028206 88.552948,109.005829 
z"/>
<path fill="#FCEBDC" opacity="1.000000" stroke="none" 
	d="
M106.023590,204.498138 
	C107.026764,204.829651 108.080322,205.509933 109.287720,206.481628 
	C108.319031,206.130966 107.196510,205.488937 106.023590,204.498138 
z"/>
<path fill="#FCEBDC" opacity="1.000000" stroke="none" 
	d="
M207.833313,104.035759 
	C206.900543,103.484634 206.009323,102.562637 205.062256,101.319397 
	C205.962540,101.887070 206.918716,102.775978 207.833313,104.035759 
z"/>
<path fill="#FCEBDC" opacity="1.000000" stroke="none" 
	d="
M195.967468,91.631012 
	C194.966019,91.258568 193.928329,90.526924 192.746429,89.499481 
	C193.711884,89.893066 194.821564,90.582436 195.967468,91.631012 
z"/>
<path fill="#FCEBDC" opacity="1.000000" stroke="none" 
	d="
M182.739532,211.140900 
	C183.409760,210.526016 184.408981,209.875198 185.721802,209.229340 
	C185.046432,209.857864 184.057480,210.481415 182.739532,211.140900 
z"/>
<path fill="#FCEBDC" opacity="1.000000" stroke="none" 
	d="
M82.228271,172.839264 
	C82.855011,173.735168 83.409271,175.006653 84.009903,176.639343 
	C83.422783,175.738663 82.789284,174.476730 82.228271,172.839264 
z"/>
<path fill="#FCEBDC" opacity="1.000000" stroke="none" 
	d="
M80.712570,168.190735 
	C81.288147,168.791611 81.640228,169.564514 81.960724,170.667038 
	C81.449112,170.118698 80.969101,169.240738 80.712570,168.190735 
z"/>
<path fill="#FDE8D6" opacity="1.000000" stroke="none" 
	d="
M79.960190,129.087753 
	C80.053497,129.919754 79.872375,130.910339 79.455368,132.128937 
	C79.374901,131.320084 79.530327,130.283218 79.960190,129.087753 
z"/>
<path fill="#FDE8D6" opacity="1.000000" stroke="none" 
	d="
M85.596298,114.056305 
	C85.552612,114.974457 85.148102,115.965256 84.488297,117.165154 
	C84.567162,116.292488 84.901321,115.210716 85.596298,114.056305 
z"/>
<path fill="#FDE8D6" opacity="1.000000" stroke="none" 
	d="
M90.510300,106.033806 
	C90.474022,106.666183 90.111572,107.366287 89.465187,108.196129 
	C89.515549,107.584427 89.849838,106.842979 90.510300,106.033806 
z"/>
<path fill="#FCEBDC" opacity="1.000000" stroke="none" 
	d="
M191.959015,88.569031 
	C191.335556,88.503227 190.654404,88.106346 189.843826,87.427338 
	C190.443390,87.509460 191.172363,87.873711 191.959015,88.569031 
z"/>
<path fill="#FCEBDC" opacity="1.000000" stroke="none" 
	d="
M209.864929,106.972046 
	C209.274429,106.744324 208.709656,106.173241 208.119553,105.293083 
	C208.693039,105.532227 209.291840,106.080460 209.864929,106.972046 
z"/>
<path fill="#FCEBDC" opacity="1.000000" stroke="none" 
	d="
M84.276443,177.768890 
	C84.855606,178.071518 85.353485,178.731155 85.852203,179.707397 
	C85.300415,179.391296 84.747780,178.758621 84.276443,177.768890 
z"/>
<path fill="#FCEBDC" opacity="1.000000" stroke="none" 
	d="
M211.837662,110.043945 
	C211.257904,109.791473 210.715958,109.194321 210.163544,108.286232 
	C210.727188,108.549950 211.301331,109.124611 211.837662,110.043945 
z"/>
<path fill="#FDE8D6" opacity="1.000000" stroke="none" 
	d="
M78.881630,159.434387 
	C79.083443,159.625198 79.279869,160.017807 79.325340,160.596802 
	C79.075005,160.400864 78.975616,160.018509 78.881630,159.434387 
z"/>
<path fill="#FCEBDC" opacity="1.000000" stroke="none" 
	d="
M206.899139,191.012650 
	C206.903946,190.687943 207.148041,190.280899 207.630005,189.778397 
	C207.624710,190.098724 207.381561,190.514526 206.899139,191.012650 
z"/>
<path fill="#FDE8D6" opacity="1.000000" stroke="none" 
	d="
M83.466362,119.148582 
	C83.749557,119.333206 83.686340,119.619911 83.255020,119.997360 
	C83.027412,119.816162 83.105080,119.537018 83.466362,119.148582 
z"/>
<path fill="#FCEBDC" opacity="1.000000" stroke="none" 
	d="
M181.177338,211.945648 
	C181.074036,211.671616 181.287140,211.459305 181.832581,211.354889 
	C181.896545,211.612259 181.672821,211.793808 181.177338,211.945648 
z"/>
<path fill="#FCEBDC" opacity="1.000000" stroke="none" 
	d="
M121.147858,213.289917 
	C121.334160,213.165192 121.682472,213.275116 122.207657,213.604645 
	C122.026299,213.724365 121.668083,213.624481 121.147858,213.289917 
z"/>
<path fill="#FCEBDC" opacity="1.000000" stroke="none" 
	d="
M184.774399,83.873444 
	C184.551117,84.013535 184.189194,83.872932 183.648209,83.493706 
	C183.858017,83.367645 184.246887,83.480194 184.774399,83.873444 
z"/>
<path fill="#FDE8D6" opacity="1.000000" stroke="none" 
	d="
M82.013168,123.307655 
	C82.039101,123.252029 82.282364,123.363243 82.282364,123.363243 
	C82.282364,123.363243 82.171242,123.606201 82.035126,123.601242 
	C81.899017,123.596283 81.987236,123.363281 82.013168,123.307655 
z"/>
<path fill="#FDE8D6" opacity="1.000000" stroke="none" 
	d="
M78.723877,135.073669 
	C78.905205,135.167999 78.931526,135.341583 78.850212,135.755615 
	C78.622978,135.812210 78.480949,135.637817 78.397285,135.438889 
	C78.371811,135.378326 78.507164,135.250153 78.723877,135.073669 
z"/>
<path fill="#E2E3E7" opacity="1.000000" stroke="none" 
	d="
M31.423096,140.013153 
	C24.403053,139.259308 23.541080,137.615799 24.715788,131.104294 
	C25.884266,124.627342 29.584017,120.217422 34.806778,116.270630 
	C39.937534,114.034378 44.838097,112.668556 50.346752,113.856804 
	C53.415306,114.518707 53.977554,115.958710 54.032856,118.599556 
	C54.273743,130.103409 44.891895,139.206390 31.423096,140.013153 
z"/>
<path fill="#E6E6E8" opacity="1.000000" stroke="none" 
	d="
M41.227219,55.289402 
	C44.264149,52.937115 47.037827,50.836082 50.286427,48.375305 
	C50.274925,53.051247 43.533749,60.292294 37.718307,61.038349 
	C38.800194,59.205784 39.882080,57.373222 41.227219,55.289402 
z"/>
<path fill="#9594A1" opacity="1.000000" stroke="none" 
	d="
M42.425045,196.409760 
	C42.701351,196.395477 42.797657,196.504715 42.893959,196.613937 
	C42.677654,196.587051 42.461349,196.560165 42.425045,196.409760 
z"/>
<path fill="#F2F2F2" opacity="1.000000" stroke="none" 
	d="
M22.515408,116.133385 
	C20.008366,117.397163 19.193295,116.093491 19.737278,110.307777 
	C20.929207,112.787361 21.657579,114.302605 22.515408,116.133385 
z"/>
<path fill="#F2F2F2" opacity="1.000000" stroke="none" 
	d="
M18.398567,21.074699 
	C18.182558,19.414774 18.182558,18.032312 18.182558,16.649851 
	C18.788713,16.699898 19.394867,16.749947 20.001022,16.799995 
	C19.538874,18.317385 19.076725,19.834776 18.398567,21.074699 
z"/>
<path fill="#F2F2F2" opacity="1.000000" stroke="none" 
	d="
M21.811674,155.990082 
	C21.352514,156.574158 20.840639,156.821152 20.328764,157.068146 
	C20.015018,155.584305 19.701271,154.100479 19.387524,152.616638 
	C19.673288,152.526550 19.959051,152.436462 20.244814,152.346375 
	C20.749529,153.448593 21.254244,154.550797 21.811674,155.990082 
z"/>
<path fill="#F2F2F2" opacity="1.000000" stroke="none" 
	d="
M22.499878,266.679047 
	C23.036486,267.018799 23.357950,267.569763 23.679413,268.120758 
	C23.404266,268.245850 23.129120,268.370941 22.853973,268.496063 
	C22.664228,267.960815 22.474480,267.425537 22.499878,266.679047 
z"/>
<path fill="#F2F2F2" opacity="1.000000" stroke="none" 
	d="
M20.499901,161.678986 
	C21.036497,162.018738 21.357958,162.569717 21.679422,163.120728 
	C21.404280,163.245834 21.129135,163.370941 20.853987,163.496063 
	C20.664246,162.960785 20.474506,162.425507 20.499901,161.678986 
z"/>
<path fill="#F2F2F2" opacity="1.000000" stroke="none" 
	d="
M18.214993,10.793440 
	C18.573507,10.200981 18.994846,9.903241 19.416185,9.605501 
	C19.529772,10.045630 19.643358,10.485762 19.756945,10.925892 
	C19.263903,10.979981 18.770861,11.034070 18.214993,10.793440 
z"/>
<path fill="#F2F2F2" opacity="1.000000" stroke="none" 
	d="
M22.499889,82.679016 
	C23.036497,83.018745 23.357967,83.569733 23.679438,84.120720 
	C23.404295,84.245834 23.129154,84.370941 22.854012,84.496048 
	C22.664257,83.960785 22.474503,83.425529 22.499889,82.679016 
z"/>
<path fill="#F2F2F2" opacity="1.000000" stroke="none" 
	d="
M22.456331,33.617737 
	C22.342484,34.057728 22.062893,34.324604 21.783304,34.591476 
	C21.672834,34.475742 21.562366,34.360004 21.451897,34.244270 
	C21.731461,33.977718 22.011026,33.711170 22.456331,33.617737 
z"/>
<path fill="#F2F2F2" opacity="1.000000" stroke="none" 
	d="
M22.617731,71.543671 
	C23.057730,71.657516 23.327324,71.934822 23.576115,72.229675 
	C23.582432,72.237160 23.360025,72.437645 23.244291,72.548119 
	C22.977732,72.268555 22.711172,71.988983 22.617731,71.543671 
z"/>
<path fill="#F2F2F2" opacity="1.000000" stroke="none" 
	d="
M23.382263,78.456329 
	C22.942266,78.342484 22.675388,78.062897 22.408510,77.783310 
	C22.524246,77.672836 22.639980,77.562363 22.755718,77.451889 
	C23.022272,77.731453 23.288826,78.011017 23.382263,78.456329 
z"/>
<path fill="#F2F2F2" opacity="1.000000" stroke="none" 
	d="
M23.382280,192.456299 
	C22.942287,192.342468 22.675407,192.062897 22.408527,191.783325 
	C22.524256,191.672852 22.639984,191.562378 22.755714,191.451904 
	C23.022276,191.731461 23.288836,192.011002 23.382280,192.456299 
z"/>
</svg>